<svg width="18" height="19" viewBox="0 0 18 19" fill="none" xmlns="http://www.w3.org/2000/svg">
<path d="M4.33381 15.6213L12.5862 7.55165L13.7079 8.71145L4.84761 17.4642L4.33381 15.6213ZM4.07485 15.3901L3.07759 15.3066L2.89686 14.1885L11.2454 6.16396L12.3458 7.30262L4.07485 15.3901ZM2.65512 13.9414L0.744729 13.6145L9.83102 4.70053L11.005 5.91485L2.65512 13.9414ZM0.575187 13.9367L2.56069 14.2763L2.75758 15.4956C2.7701 15.5741 2.83451 15.6336 2.91366 15.6405L4.00532 15.7318L4.54305 17.6584L1.83723 18.1593C1.83944 17.8928 1.73656 17.4908 1.41045 17.0957C1.01913 16.6211 0.50446 16.6133 0.23364 16.6498L0.575187 13.9367ZM0.188168 17.0092C0.316478 16.9789 0.800108 16.9002 1.14343 17.3165C1.4762 17.72 1.50945 18.0954 1.48766 18.2246L0 18.5L0.188168 17.0092ZM16.1466 7.37736L14.8417 8.63942C14.6435 8.83101 14.2997 8.8254 14.1078 8.6269L9.92813 4.30361C9.8319 4.20423 9.78039 4.07303 9.783 3.93375C9.78522 3.79446 9.84128 3.66482 9.94038 3.56909L11.2455 2.30676C11.3424 2.21325 11.4704 2.16187 11.6063 2.16187C11.7487 2.16187 11.8815 2.21795 11.9795 2.31928L16.1588 6.64257C16.3575 6.8489 16.3519 7.1782 16.1464 7.37736H16.1466ZM17.7909 4.67718L16.2306 6.21873L12.3624 2.21695L13.8339 0.773227C13.8368 0.770357 14.1015 0.5 14.4322 0.5H14.4365C14.6246 0.500913 14.8056 0.592596 14.9773 0.775443L17.7779 3.6037C17.7975 3.62848 18.2592 4.21471 17.7908 4.67702L17.7909 4.67718Z" fill="#153462"/>
</svg>
