<svg width="23" height="20" viewBox="0 0 23 20" fill="none" xmlns="http://www.w3.org/2000/svg">
<path d="M0.566198 19.2514C0.428885 19.491 0.51179 19.7965 0.751373 19.9338C0.990955 20.0711 1.29649 19.9882 1.4338 19.7486L0.566198 19.2514ZM7.76923 7.68912L8.20888 7.45098L7.78157 6.66207L7.33543 7.44049L7.76923 7.68912ZM12 15.5L11.5604 15.7381L11.9363 16.4323L12.4032 15.7957L12 15.5ZM23 0.5L17.7153 2.82491L22.3711 6.23914L23 0.5ZM1.4338 19.7486L8.20303 7.93774L7.33543 7.44049L0.566198 19.2514L1.4338 19.7486ZM7.32958 7.92725L11.5604 15.7381L12.4396 15.2619L8.20888 7.45098L7.32958 7.92725ZM12.4032 15.7957L20.7421 4.4245L19.9357 3.83314L11.5968 15.2043L12.4032 15.7957Z" fill="#C92C6D"/>
</svg>
