<svg width="101" height="100" viewBox="0 0 101 100" fill="none" xmlns="http://www.w3.org/2000/svg">
<path d="M95.4552 49.7598C92.9676 49.7598 90.7781 51.5833 90.5129 54.061C88.0282 77.2242 65.6963 94.6425 41.0294 88.8048C26.4467 85.3562 14.7763 73.4564 11.5396 58.8004C6.20665 34.6748 22.9226 12.9795 45.3461 9.98122C47.7598 9.65824 49.506 7.49436 49.506 5.05215V5.05285C49.5018 3.59075 48.8675 2.20259 47.7668 1.24346C46.6654 0.284304 45.2048 -0.151673 43.7595 0.0471366C16.1037 3.90117 -4.553 30.5569 1.58699 60.2881C5.48646 79.1886 20.4579 94.4962 39.2521 98.7195C69.7239 105.572 97.2265 84.0254 100.467 55.4148V55.4155C100.632 53.9813 100.179 52.545 99.2225 51.4652C98.2666 50.3853 96.8965 49.7652 95.456 49.7582L95.4552 49.7598Z" fill="#C92C6D"/>
<path d="M33.5903 43.7386C32.3372 42.4823 30.5104 41.9919 28.7976 42.4516C27.0856 42.9113 25.7483 44.2513 25.2893 45.9667C24.8305 47.6827 25.3199 49.513 26.5731 50.7688L42.2935 66.5171C43.1755 67.4016 44.3723 67.8983 45.6206 67.8983C46.8682 67.8983 48.065 67.4016 48.9471 66.5171L92.2532 23.1302C93.5084 21.8731 93.9986 20.0399 93.5391 18.3225C93.0796 16.6044 91.7407 15.263 90.026 14.8026C88.3119 14.3422 86.4823 14.8333 85.2277 16.091L45.6395 55.7957L33.5903 43.7386Z" fill="#54BAB9"/>
</svg>
